<?xml version="1.0" encoding="UTF-8" standalone="no"?>
<!DOCTYPE svg PUBLIC "-//W3C//DTD SVG 1.1//EN"
 "http://www.w3.org/Graphics/SVG/1.1/DTD/svg11.dtd">
<!-- Generated by graphviz version 9.0.0 (20230911.1827)
 -->
<!-- Pages: 1 -->
<svg width="780pt" height="392pt"
 viewBox="0.00 0.00 780.25 392.25" xmlns="http://www.w3.org/2000/svg" xmlns:xlink="http://www.w3.org/1999/xlink">
<g id="graph0" class="graph" transform="scale(1 1) rotate(0) translate(4 388.25)">
<polygon fill="white" stroke="none" points="-4,4 -4,-388.25 776.25,-388.25 776.25,4 -4,4"/>
<!-- Driver -->
<g id="node1" class="node">
<title>Driver</title>
<polygon fill="none" stroke="black" points="486.5,-222 486.5,-251.5 603,-251.5 603,-222 486.5,-222"/>
<text text-anchor="start" x="516.62" y="-232.3" font-family="Helvetica,sans-Serif" font-weight="bold" font-size="16.00">Driver</text>
<polygon fill="none" stroke="black" points="486.5,-194.75 486.5,-222 603,-222 603,-194.75 486.5,-194.75"/>
<text text-anchor="start" x="491.5" y="-204.7" font-family="Helvetica,sans-Serif" text-decoration="underline" font-size="14.00">id</text>
<polygon fill="none" stroke="black" points="486.5,-167.5 486.5,-194.75 603,-194.75 603,-167.5 486.5,-167.5"/>
<text text-anchor="start" x="491.5" y="-176.45" font-family="Helvetica,sans-Serif" font-size="14.00">first_name</text>
<polygon fill="none" stroke="black" points="486.5,-140.25 486.5,-167.5 603,-167.5 603,-140.25 486.5,-140.25"/>
<text text-anchor="start" x="491.5" y="-149.2" font-family="Helvetica,sans-Serif" font-size="14.00">last_name</text>
<polygon fill="none" stroke="black" points="486.5,-113 486.5,-140.25 603,-140.25 603,-113 486.5,-113"/>
<text text-anchor="start" x="491.5" y="-121.95" font-family="Helvetica,sans-Serif" font-size="14.00">status</text>
<polygon fill="none" stroke="black" points="486.5,-85.75 486.5,-113 603,-113 603,-85.75 486.5,-85.75"/>
<text text-anchor="start" x="491.5" y="-94.7" font-family="Helvetica,sans-Serif" font-size="14.00">email</text>
<polygon fill="none" stroke="black" points="486.5,-58.5 486.5,-85.75 603,-85.75 603,-58.5 486.5,-58.5"/>
<text text-anchor="start" x="491.5" y="-67.45" font-family="Helvetica,sans-Serif" font-size="14.00">password_hash</text>
<polygon fill="none" stroke="black" points="486.5,-31.25 486.5,-58.5 603,-58.5 603,-31.25 486.5,-31.25"/>
<text text-anchor="start" x="491.5" y="-40.2" font-family="Helvetica,sans-Serif" font-size="14.00">roles</text>
<polygon fill="none" stroke="black" points="486.5,-4 486.5,-31.25 603,-31.25 603,-4 486.5,-4"/>
<text text-anchor="start" x="491.5" y="-13.95" font-family="Helvetica,sans-Serif" font-style="italic" font-size="14.00">team_id</text>
</g>
<!-- Team -->
<g id="node5" class="node">
<title>Team</title>
<polygon fill="none" stroke="black" points="692,-245.5 692,-275 764.25,-275 764.25,-245.5 692,-245.5"/>
<text text-anchor="start" x="704.88" y="-255.8" font-family="Helvetica,sans-Serif" font-weight="bold" font-size="16.00">Team</text>
<polygon fill="none" stroke="black" points="692,-218.25 692,-245.5 764.25,-245.5 764.25,-218.25 692,-218.25"/>
<text text-anchor="start" x="697" y="-228.2" font-family="Helvetica,sans-Serif" text-decoration="underline" font-size="14.00">id</text>
<polygon fill="none" stroke="black" points="692,-191 692,-218.25 764.25,-218.25 764.25,-191 692,-191"/>
<text text-anchor="start" x="697" y="-199.95" font-family="Helvetica,sans-Serif" font-size="14.00">name</text>
<polygon fill="none" stroke="black" points="692,-163.75 692,-191 764.25,-191 764.25,-163.75 692,-163.75"/>
<text text-anchor="start" x="697" y="-172.7" font-family="Helvetica,sans-Serif" font-size="14.00">country</text>
<polygon fill="none" stroke="black" points="692,-136.5 692,-163.75 764.25,-163.75 764.25,-136.5 692,-136.5"/>
<text text-anchor="start" x="697" y="-145.45" font-family="Helvetica,sans-Serif" font-size="14.00">join_date</text>
</g>
<!-- Driver&#45;&#45;Team -->
<g id="edge2" class="edge">
<title>Driver&#45;&#45;Team</title>
<path fill="none" stroke="#7f7f7f" stroke-dasharray="5,2" d="M610.97,-155.8C635.35,-166.28 662.39,-177.91 684.25,-187.31"/>
<text text-anchor="start" x="643.75" y="-174.01" font-family="Times,serif" font-size="14.00">{0,1}</text>
<text text-anchor="start" x="610.97" y="-142.5" font-family="Times,serif" font-size="14.00">0..N</text>
</g>
<!-- Circuit -->
<g id="node2" class="node">
<title>Circuit</title>
<polygon fill="none" stroke="black" points="8,-145.12 8,-174.62 77.25,-174.62 77.25,-145.12 8,-145.12"/>
<text text-anchor="start" x="13" y="-155.43" font-family="Helvetica,sans-Serif" font-weight="bold" font-size="16.00">Circuit</text>
<polygon fill="none" stroke="black" points="8,-117.88 8,-145.12 77.25,-145.12 77.25,-117.88 8,-117.88"/>
<text text-anchor="start" x="13" y="-127.83" font-family="Helvetica,sans-Serif" text-decoration="underline" font-size="14.00">id</text>
<polygon fill="none" stroke="black" points="8,-90.62 8,-117.88 77.25,-117.88 77.25,-90.62 8,-90.62"/>
<text text-anchor="start" x="13" y="-100.58" font-family="Helvetica,sans-Serif" text-decoration="underline" font-size="14.00">name</text>
<polygon fill="none" stroke="black" points="8,-63.38 8,-90.62 77.25,-90.62 77.25,-63.38 8,-63.38"/>
<text text-anchor="start" x="13" y="-72.33" font-family="Helvetica,sans-Serif" font-size="14.00">city</text>
<polygon fill="none" stroke="black" points="8,-36.12 8,-63.38 77.25,-63.38 77.25,-36.12 8,-36.12"/>
<text text-anchor="start" x="13" y="-45.08" font-family="Helvetica,sans-Serif" font-size="14.00">country</text>
<polygon fill="none" stroke="black" points="8,-8.88 8,-36.12 77.25,-36.12 77.25,-8.88 8,-8.88"/>
<text text-anchor="start" x="13" y="-17.82" font-family="Helvetica,sans-Serif" font-size="14.00">active</text>
</g>
<!-- Race -->
<g id="node3" class="node">
<title>Race</title>
<polygon fill="none" stroke="black" points="166.25,-131.5 166.25,-161 237.75,-161 237.75,-131.5 166.25,-131.5"/>
<text text-anchor="start" x="180.62" y="-141.8" font-family="Helvetica,sans-Serif" font-weight="bold" font-size="16.00">Race</text>
<polygon fill="none" stroke="black" points="166.25,-104.25 166.25,-131.5 237.75,-131.5 237.75,-104.25 166.25,-104.25"/>
<text text-anchor="start" x="171.25" y="-114.2" font-family="Helvetica,sans-Serif" text-decoration="underline" font-size="14.00">id</text>
<polygon fill="none" stroke="black" points="166.25,-77 166.25,-104.25 237.75,-104.25 237.75,-77 166.25,-77"/>
<text text-anchor="start" x="171.25" y="-85.95" font-family="Helvetica,sans-Serif" font-size="14.00">date</text>
<polygon fill="none" stroke="black" points="166.25,-49.75 166.25,-77 237.75,-77 237.75,-49.75 166.25,-49.75"/>
<text text-anchor="start" x="171.25" y="-58.7" font-family="Helvetica,sans-Serif" font-size="14.00">laps</text>
<polygon fill="none" stroke="black" points="166.25,-22.5 166.25,-49.75 237.75,-49.75 237.75,-22.5 166.25,-22.5"/>
<text text-anchor="start" x="171.25" y="-32.45" font-family="Helvetica,sans-Serif" font-style="italic" font-size="14.00">circuit_id</text>
</g>
<!-- Circuit&#45;&#45;Race -->
<g id="edge4" class="edge">
<title>Circuit&#45;&#45;Race</title>
<path fill="none" stroke="#7f7f7f" stroke-dasharray="5,2" d="M84.97,-91.75C107.56,-91.75 135.49,-91.75 158.28,-91.75"/>
<text text-anchor="start" x="149.28" y="-78.45" font-family="Times,serif" font-size="14.00">1</text>
<text text-anchor="start" x="84.97" y="-78.45" font-family="Times,serif" font-size="14.00">0..N</text>
</g>
<!-- Result -->
<g id="node4" class="node">
<title>Result</title>
<polygon fill="none" stroke="black" points="326.75,-208.38 326.75,-237.88 397.5,-237.88 397.5,-208.38 326.75,-208.38"/>
<text text-anchor="start" x="334" y="-218.68" font-family="Helvetica,sans-Serif" font-weight="bold" font-size="16.00">Result</text>
<polygon fill="none" stroke="black" points="326.75,-181.12 326.75,-208.38 397.5,-208.38 397.5,-181.12 326.75,-181.12"/>
<text text-anchor="start" x="331.75" y="-191.07" font-family="Helvetica,sans-Serif" text-decoration="underline" font-size="14.00">id</text>
<polygon fill="none" stroke="black" points="326.75,-153.88 326.75,-181.12 397.5,-181.12 397.5,-153.88 326.75,-153.88"/>
<text text-anchor="start" x="331.75" y="-162.82" font-family="Helvetica,sans-Serif" font-size="14.00">position</text>
<polygon fill="none" stroke="black" points="326.75,-126.62 326.75,-153.88 397.5,-153.88 397.5,-126.62 326.75,-126.62"/>
<text text-anchor="start" x="331.75" y="-135.57" font-family="Helvetica,sans-Serif" font-size="14.00">points</text>
<polygon fill="none" stroke="black" points="326.75,-99.38 326.75,-126.62 397.5,-126.62 397.5,-99.38 326.75,-99.38"/>
<text text-anchor="start" x="331.75" y="-108.33" font-family="Helvetica,sans-Serif" font-size="14.00">status</text>
<polygon fill="none" stroke="black" points="326.75,-72.12 326.75,-99.38 397.5,-99.38 397.5,-72.12 326.75,-72.12"/>
<text text-anchor="start" x="331.75" y="-82.08" font-family="Helvetica,sans-Serif" font-style="italic" font-size="14.00">race_id</text>
<polygon fill="none" stroke="black" points="326.75,-44.88 326.75,-72.12 397.5,-72.12 397.5,-44.88 326.75,-44.88"/>
<text text-anchor="start" x="331.75" y="-54.83" font-family="Helvetica,sans-Serif" font-style="italic" font-size="14.00">driver_id</text>
<polygon fill="none" stroke="black" points="326.75,-17.62 326.75,-44.88 397.5,-44.88 397.5,-17.62 326.75,-17.62"/>
<text text-anchor="start" x="331.75" y="-27.57" font-family="Helvetica,sans-Serif" font-style="italic" font-size="14.00">car_id</text>
</g>
<!-- Race&#45;&#45;Result -->
<g id="edge5" class="edge">
<title>Race&#45;&#45;Result</title>
<path fill="none" stroke="#7f7f7f" stroke-dasharray="5,2" d="M245.37,-101.4C268.15,-106.58 296.15,-112.96 318.91,-118.14"/>
<text text-anchor="start" x="288.91" y="-104.84" font-family="Times,serif" font-size="14.00">0..N</text>
<text text-anchor="start" x="245.37" y="-88.1" font-family="Times,serif" font-size="14.00">1</text>
</g>
<!-- Result&#45;&#45;Driver -->
<g id="edge6" class="edge">
<title>Result&#45;&#45;Driver</title>
<path fill="none" stroke="#7f7f7f" stroke-dasharray="5,2" d="M405.47,-127.75C427.27,-127.75 454.31,-127.75 478.68,-127.75"/>
<text text-anchor="start" x="469.68" y="-114.45" font-family="Times,serif" font-size="14.00">1</text>
<text text-anchor="start" x="405.47" y="-114.45" font-family="Times,serif" font-size="14.00">0..N</text>
</g>
<!-- Car -->
<g id="node6" class="node">
<title>Car</title>
<polygon fill="none" stroke="black" points="166.62,-350.75 166.62,-380.25 237.38,-380.25 237.38,-350.75 166.62,-350.75"/>
<text text-anchor="start" x="186.62" y="-361.05" font-family="Helvetica,sans-Serif" font-weight="bold" font-size="16.00">Car</text>
<polygon fill="none" stroke="black" points="166.62,-323.5 166.62,-350.75 237.38,-350.75 237.38,-323.5 166.62,-323.5"/>
<text text-anchor="start" x="171.62" y="-333.45" font-family="Helvetica,sans-Serif" text-decoration="underline" font-size="14.00">id</text>
<polygon fill="none" stroke="black" points="166.62,-296.25 166.62,-323.5 237.38,-323.5 237.38,-296.25 166.62,-296.25"/>
<text text-anchor="start" x="171.62" y="-305.2" font-family="Helvetica,sans-Serif" font-size="14.00">model</text>
<polygon fill="none" stroke="black" points="166.62,-269 166.62,-296.25 237.38,-296.25 237.38,-269 166.62,-269"/>
<text text-anchor="start" x="171.62" y="-277.95" font-family="Helvetica,sans-Serif" font-size="14.00">weight</text>
<polygon fill="none" stroke="black" points="166.62,-241.75 166.62,-269 237.38,-269 237.38,-241.75 166.62,-241.75"/>
<text text-anchor="start" x="171.62" y="-250.7" font-family="Helvetica,sans-Serif" font-size="14.00">year</text>
<polygon fill="none" stroke="black" points="166.62,-214.5 166.62,-241.75 237.38,-241.75 237.38,-214.5 166.62,-214.5"/>
<text text-anchor="start" x="171.62" y="-224.45" font-family="Helvetica,sans-Serif" font-style="italic" font-size="14.00">driver_id</text>
<polygon fill="none" stroke="black" points="166.62,-187.25 166.62,-214.5 237.38,-214.5 237.38,-187.25 166.62,-187.25"/>
<text text-anchor="start" x="171.62" y="-197.2" font-family="Helvetica,sans-Serif" font-style="italic" font-size="14.00">team_id</text>
</g>
<!-- Car&#45;&#45;Result -->
<g id="edge3" class="edge">
<title>Car&#45;&#45;Result</title>
<path fill="none" stroke="#7f7f7f" stroke-dasharray="5,2" d="M245.37,-241.94C268.15,-219.47 296.15,-191.85 318.91,-169.4"/>
<text text-anchor="start" x="288.91" y="-156.1" font-family="Times,serif" font-size="14.00">0..N</text>
<text text-anchor="start" x="245.37" y="-228.64" font-family="Times,serif" font-size="14.00">1</text>
</g>
<!-- Car&#45;&#45;Team -->
<g id="edge1" class="edge">
<title>Car&#45;&#45;Team</title>
<path fill="none" stroke="#7f7f7f" stroke-dasharray="5,2" d="M245.28,-283.75C277.13,-283.75 321.87,-283.75 361.12,-283.75 361.12,-283.75 361.12,-283.75 545.75,-283.75 596.31,-283.75 648.82,-257.86 684.25,-235.91"/>
<text text-anchor="start" x="675.25" y="-222.61" font-family="Times,serif" font-size="14.00">1</text>
<text text-anchor="start" x="245.28" y="-270.45" font-family="Times,serif" font-size="14.00">0..N</text>
</g>
</g>
</svg>
