<?xml version="1.0" encoding="UTF-8" standalone="no"?>
<!DOCTYPE svg PUBLIC "-//W3C//DTD SVG 1.1//EN"
 "http://www.w3.org/Graphics/SVG/1.1/DTD/svg11.dtd">
<!-- Generated by graphviz version 9.0.0 (20230911.1827)
 -->
<!-- Pages: 1 -->
<svg width="907pt" height="305pt"
 viewBox="0.00 0.00 907.00 305.00" xmlns="http://www.w3.org/2000/svg" xmlns:xlink="http://www.w3.org/1999/xlink">
<g id="graph0" class="graph" transform="scale(1 1) rotate(0) translate(4 301)">
<polygon fill="white" stroke="none" points="-4,4 -4,-301 903,-301 903,4 -4,4"/>
<!-- Driver -->
<g id="node1" class="node">
<title>Driver</title>
<polygon fill="none" stroke="black" points="486.5,-263.5 486.5,-293 570,-293 570,-263.5 486.5,-263.5"/>
<text text-anchor="start" x="500.12" y="-273.8" font-family="Helvetica,sans-Serif" font-weight="bold" font-size="16.00">Driver</text>
<polygon fill="none" stroke="black" points="486.5,-236.25 486.5,-263.5 570,-263.5 570,-236.25 486.5,-236.25"/>
<text text-anchor="start" x="491.5" y="-246.2" font-family="Helvetica,sans-Serif" text-decoration="underline" font-size="14.00">id</text>
<polygon fill="none" stroke="black" points="486.5,-209 486.5,-236.25 570,-236.25 570,-209 486.5,-209"/>
<text text-anchor="start" x="491.5" y="-217.95" font-family="Helvetica,sans-Serif" font-size="14.00">first_name</text>
<polygon fill="none" stroke="black" points="486.5,-181.75 486.5,-209 570,-209 570,-181.75 486.5,-181.75"/>
<text text-anchor="start" x="491.5" y="-190.7" font-family="Helvetica,sans-Serif" font-size="14.00">last_name</text>
<polygon fill="none" stroke="black" points="486.5,-154.5 486.5,-181.75 570,-181.75 570,-154.5 486.5,-154.5"/>
<text text-anchor="start" x="491.5" y="-163.45" font-family="Helvetica,sans-Serif" font-size="14.00">status</text>
<polygon fill="none" stroke="black" points="486.5,-127.25 486.5,-154.5 570,-154.5 570,-127.25 486.5,-127.25"/>
<text text-anchor="start" x="491.5" y="-137.2" font-family="Helvetica,sans-Serif" font-style="italic" font-size="14.00">team_id</text>
</g>
<!-- Team -->
<g id="node5" class="node">
<title>Team</title>
<polygon fill="none" stroke="black" points="659,-242.88 659,-272.38 731.25,-272.38 731.25,-242.88 659,-242.88"/>
<text text-anchor="start" x="671.88" y="-253.18" font-family="Helvetica,sans-Serif" font-weight="bold" font-size="16.00">Team</text>
<polygon fill="none" stroke="black" points="659,-215.62 659,-242.88 731.25,-242.88 731.25,-215.62 659,-215.62"/>
<text text-anchor="start" x="664" y="-225.57" font-family="Helvetica,sans-Serif" text-decoration="underline" font-size="14.00">id</text>
<polygon fill="none" stroke="black" points="659,-188.38 659,-215.62 731.25,-215.62 731.25,-188.38 659,-188.38"/>
<text text-anchor="start" x="664" y="-197.32" font-family="Helvetica,sans-Serif" font-size="14.00">name</text>
<polygon fill="none" stroke="black" points="659,-161.12 659,-188.38 731.25,-188.38 731.25,-161.12 659,-161.12"/>
<text text-anchor="start" x="664" y="-170.07" font-family="Helvetica,sans-Serif" font-size="14.00">country</text>
<polygon fill="none" stroke="black" points="659,-133.88 659,-161.12 731.25,-161.12 731.25,-133.88 659,-133.88"/>
<text text-anchor="start" x="664" y="-142.82" font-family="Helvetica,sans-Serif" font-size="14.00">join_date</text>
</g>
<!-- Driver&#45;&#45;Team -->
<g id="edge4" class="edge">
<title>Driver&#45;&#45;Team</title>
<path fill="none" stroke="#7f7f7f" stroke-dasharray="5,2" d="M577.83,-208.06C601.1,-207.07 628.73,-205.9 651.22,-204.95"/>
<text text-anchor="start" x="642.22" y="-191.65" font-family="Times,serif" font-size="14.00">1</text>
<text text-anchor="start" x="577.83" y="-194.76" font-family="Times,serif" font-size="14.00">0..N</text>
</g>
<!-- Circuit -->
<g id="node2" class="node">
<title>Circuit</title>
<polygon fill="none" stroke="black" points="8,-167.5 8,-197 77.25,-197 77.25,-167.5 8,-167.5"/>
<text text-anchor="start" x="13" y="-177.8" font-family="Helvetica,sans-Serif" font-weight="bold" font-size="16.00">Circuit</text>
<polygon fill="none" stroke="black" points="8,-140.25 8,-167.5 77.25,-167.5 77.25,-140.25 8,-140.25"/>
<text text-anchor="start" x="13" y="-150.2" font-family="Helvetica,sans-Serif" text-decoration="underline" font-size="14.00">id</text>
<polygon fill="none" stroke="black" points="8,-113 8,-140.25 77.25,-140.25 77.25,-113 8,-113"/>
<text text-anchor="start" x="13" y="-121.95" font-family="Helvetica,sans-Serif" font-size="14.00">name</text>
<polygon fill="none" stroke="black" points="8,-85.75 8,-113 77.25,-113 77.25,-85.75 8,-85.75"/>
<text text-anchor="start" x="13" y="-94.7" font-family="Helvetica,sans-Serif" font-size="14.00">city</text>
<polygon fill="none" stroke="black" points="8,-58.5 8,-85.75 77.25,-85.75 77.25,-58.5 8,-58.5"/>
<text text-anchor="start" x="13" y="-67.45" font-family="Helvetica,sans-Serif" font-size="14.00">country</text>
<polygon fill="none" stroke="black" points="8,-31.25 8,-58.5 77.25,-58.5 77.25,-31.25 8,-31.25"/>
<text text-anchor="start" x="13" y="-40.2" font-family="Helvetica,sans-Serif" font-size="14.00">active</text>
</g>
<!-- Race -->
<g id="node3" class="node">
<title>Race</title>
<polygon fill="none" stroke="black" points="166.25,-153.88 166.25,-183.38 237.75,-183.38 237.75,-153.88 166.25,-153.88"/>
<text text-anchor="start" x="180.62" y="-164.18" font-family="Helvetica,sans-Serif" font-weight="bold" font-size="16.00">Race</text>
<polygon fill="none" stroke="black" points="166.25,-126.62 166.25,-153.88 237.75,-153.88 237.75,-126.62 166.25,-126.62"/>
<text text-anchor="start" x="171.25" y="-136.57" font-family="Helvetica,sans-Serif" text-decoration="underline" font-size="14.00">id</text>
<polygon fill="none" stroke="black" points="166.25,-99.38 166.25,-126.62 237.75,-126.62 237.75,-99.38 166.25,-99.38"/>
<text text-anchor="start" x="171.25" y="-108.33" font-family="Helvetica,sans-Serif" font-size="14.00">date</text>
<polygon fill="none" stroke="black" points="166.25,-72.12 166.25,-99.38 237.75,-99.38 237.75,-72.12 166.25,-72.12"/>
<text text-anchor="start" x="171.25" y="-81.08" font-family="Helvetica,sans-Serif" font-size="14.00">laps</text>
<polygon fill="none" stroke="black" points="166.25,-44.88 166.25,-72.12 237.75,-72.12 237.75,-44.88 166.25,-44.88"/>
<text text-anchor="start" x="171.25" y="-54.83" font-family="Helvetica,sans-Serif" font-style="italic" font-size="14.00">circuit_id</text>
</g>
<!-- Circuit&#45;&#45;Race -->
<g id="edge3" class="edge">
<title>Circuit&#45;&#45;Race</title>
<path fill="none" stroke="#7f7f7f" stroke-dasharray="5,2" d="M84.97,-114.12C107.56,-114.12 135.49,-114.12 158.28,-114.12"/>
<text text-anchor="start" x="128.28" y="-100.83" font-family="Times,serif" font-size="14.00">0..N</text>
<text text-anchor="start" x="84.97" y="-100.83" font-family="Times,serif" font-size="14.00">1</text>
</g>
<!-- Result -->
<g id="node4" class="node">
<title>Result</title>
<polygon fill="none" stroke="black" points="326.75,-194.75 326.75,-224.25 397.5,-224.25 397.5,-194.75 326.75,-194.75"/>
<text text-anchor="start" x="334" y="-205.05" font-family="Helvetica,sans-Serif" font-weight="bold" font-size="16.00">Result</text>
<polygon fill="none" stroke="black" points="326.75,-167.5 326.75,-194.75 397.5,-194.75 397.5,-167.5 326.75,-167.5"/>
<text text-anchor="start" x="331.75" y="-177.45" font-family="Helvetica,sans-Serif" text-decoration="underline" font-size="14.00">id</text>
<polygon fill="none" stroke="black" points="326.75,-140.25 326.75,-167.5 397.5,-167.5 397.5,-140.25 326.75,-140.25"/>
<text text-anchor="start" x="331.75" y="-149.2" font-family="Helvetica,sans-Serif" font-size="14.00">position</text>
<polygon fill="none" stroke="black" points="326.75,-113 326.75,-140.25 397.5,-140.25 397.5,-113 326.75,-113"/>
<text text-anchor="start" x="331.75" y="-121.95" font-family="Helvetica,sans-Serif" font-size="14.00">points</text>
<polygon fill="none" stroke="black" points="326.75,-85.75 326.75,-113 397.5,-113 397.5,-85.75 326.75,-85.75"/>
<text text-anchor="start" x="331.75" y="-94.7" font-family="Helvetica,sans-Serif" font-size="14.00">status</text>
<polygon fill="none" stroke="black" points="326.75,-58.5 326.75,-85.75 397.5,-85.75 397.5,-58.5 326.75,-58.5"/>
<text text-anchor="start" x="331.75" y="-68.45" font-family="Helvetica,sans-Serif" font-style="italic" font-size="14.00">race_id</text>
<polygon fill="none" stroke="black" points="326.75,-31.25 326.75,-58.5 397.5,-58.5 397.5,-31.25 326.75,-31.25"/>
<text text-anchor="start" x="331.75" y="-41.2" font-family="Helvetica,sans-Serif" font-style="italic" font-size="14.00">driver_id</text>
<polygon fill="none" stroke="black" points="326.75,-4 326.75,-31.25 397.5,-31.25 397.5,-4 326.75,-4"/>
<text text-anchor="start" x="331.75" y="-13.95" font-family="Helvetica,sans-Serif" font-style="italic" font-size="14.00">car_id</text>
</g>
<!-- Race&#45;&#45;Result -->
<g id="edge5" class="edge">
<title>Race&#45;&#45;Result</title>
<path fill="none" stroke="#7f7f7f" stroke-dasharray="5,2" d="M245.37,-114.12C268.15,-114.12 296.15,-114.12 318.91,-114.12"/>
<text text-anchor="start" x="288.91" y="-100.83" font-family="Times,serif" font-size="14.00">0..N</text>
<text text-anchor="start" x="245.37" y="-100.83" font-family="Times,serif" font-size="14.00">1</text>
</g>
<!-- Result&#45;&#45;Driver -->
<g id="edge6" class="edge">
<title>Result&#45;&#45;Driver</title>
<path fill="none" stroke="#7f7f7f" stroke-dasharray="5,2" d="M405.39,-138.85C427.81,-151.96 455.45,-168.13 478.74,-181.75"/>
<text text-anchor="start" x="469.74" y="-168.45" font-family="Times,serif" font-size="14.00">1</text>
<text text-anchor="start" x="405.39" y="-125.55" font-family="Times,serif" font-size="14.00">0..N</text>
</g>
<!-- Car -->
<g id="node6" class="node">
<title>Car</title>
<polygon fill="none" stroke="black" points="820.25,-181.12 820.25,-210.62 891,-210.62 891,-181.12 820.25,-181.12"/>
<text text-anchor="start" x="840.25" y="-191.43" font-family="Helvetica,sans-Serif" font-weight="bold" font-size="16.00">Car</text>
<polygon fill="none" stroke="black" points="820.25,-153.88 820.25,-181.12 891,-181.12 891,-153.88 820.25,-153.88"/>
<text text-anchor="start" x="825.25" y="-163.82" font-family="Helvetica,sans-Serif" text-decoration="underline" font-size="14.00">id</text>
<polygon fill="none" stroke="black" points="820.25,-126.62 820.25,-153.88 891,-153.88 891,-126.62 820.25,-126.62"/>
<text text-anchor="start" x="825.25" y="-135.57" font-family="Helvetica,sans-Serif" font-size="14.00">model</text>
<polygon fill="none" stroke="black" points="820.25,-99.38 820.25,-126.62 891,-126.62 891,-99.38 820.25,-99.38"/>
<text text-anchor="start" x="825.25" y="-108.33" font-family="Helvetica,sans-Serif" font-size="14.00">weight</text>
<polygon fill="none" stroke="black" points="820.25,-72.12 820.25,-99.38 891,-99.38 891,-72.12 820.25,-72.12"/>
<text text-anchor="start" x="825.25" y="-81.08" font-family="Helvetica,sans-Serif" font-size="14.00">year</text>
<polygon fill="none" stroke="black" points="820.25,-44.88 820.25,-72.12 891,-72.12 891,-44.88 820.25,-44.88"/>
<text text-anchor="start" x="825.25" y="-54.83" font-family="Helvetica,sans-Serif" font-style="italic" font-size="14.00">team_id</text>
<polygon fill="none" stroke="black" points="820.25,-17.62 820.25,-44.88 891,-44.88 891,-17.62 820.25,-17.62"/>
<text text-anchor="start" x="825.25" y="-27.57" font-family="Helvetica,sans-Serif" font-style="italic" font-size="14.00">driver_id</text>
</g>
<!-- Result&#45;&#45;Car -->
<g id="edge2" class="edge">
<title>Result&#45;&#45;Car</title>
<path fill="none" stroke="#7f7f7f" stroke-dasharray="5,2" d="M405.48,-106.51C438.53,-101.22 485.66,-95.12 527.25,-95.12 527.25,-95.12 527.25,-95.12 696.12,-95.12 735.76,-95.12 780.57,-101.05 812.41,-106.29"/>
<text text-anchor="start" x="803.41" y="-92.99" font-family="Times,serif" font-size="14.00">1</text>
<text text-anchor="start" x="405.48" y="-93.21" font-family="Times,serif" font-size="14.00">0..N</text>
</g>
<!-- Team&#45;&#45;Car -->
<g id="edge1" class="edge">
<title>Team&#45;&#45;Car</title>
<path fill="none" stroke="#7f7f7f" stroke-dasharray="5,2" d="M739.02,-179.04C761.85,-166.22 789.81,-150.52 812.52,-137.77"/>
<text text-anchor="start" x="782.52" y="-124.47" font-family="Times,serif" font-size="14.00">0..N</text>
<text text-anchor="start" x="739.02" y="-165.74" font-family="Times,serif" font-size="14.00">1</text>
</g>
</g>
</svg>
