<?xml version="1.0" encoding="UTF-8" standalone="no"?>
<!DOCTYPE svg PUBLIC "-//W3C//DTD SVG 1.1//EN"
 "http://www.w3.org/Graphics/SVG/1.1/DTD/svg11.dtd">
<!-- Generated by graphviz version 9.0.0 (20230911.1827)
 -->
<!-- Pages: 1 -->
<svg width="621pt" height="400pt"
 viewBox="0.00 0.00 620.50 400.38" xmlns="http://www.w3.org/2000/svg" xmlns:xlink="http://www.w3.org/1999/xlink">
<g id="graph0" class="graph" transform="scale(1 1) rotate(0) translate(4 396.38)">
<polygon fill="white" stroke="none" points="-4,4 -4,-396.38 616.5,-396.38 616.5,4 -4,4"/>
<!-- Driver -->
<g id="node1" class="node">
<title>Driver</title>
<polygon fill="none" stroke="black" points="488,-290.5 488,-320 604.5,-320 604.5,-290.5 488,-290.5"/>
<text text-anchor="start" x="518.12" y="-300.8" font-family="Helvetica,sans-Serif" font-weight="bold" font-size="16.00">Driver</text>
<polygon fill="none" stroke="black" points="488,-263.25 488,-290.5 604.5,-290.5 604.5,-263.25 488,-263.25"/>
<text text-anchor="start" x="493" y="-273.2" font-family="Helvetica,sans-Serif" text-decoration="underline" font-size="14.00">id</text>
<polygon fill="none" stroke="black" points="488,-236 488,-263.25 604.5,-263.25 604.5,-236 488,-236"/>
<text text-anchor="start" x="493" y="-244.95" font-family="Helvetica,sans-Serif" font-size="14.00">first_name</text>
<polygon fill="none" stroke="black" points="488,-208.75 488,-236 604.5,-236 604.5,-208.75 488,-208.75"/>
<text text-anchor="start" x="493" y="-217.7" font-family="Helvetica,sans-Serif" font-size="14.00">last_name</text>
<polygon fill="none" stroke="black" points="488,-181.5 488,-208.75 604.5,-208.75 604.5,-181.5 488,-181.5"/>
<text text-anchor="start" x="493" y="-190.45" font-family="Helvetica,sans-Serif" font-size="14.00">status</text>
<polygon fill="none" stroke="black" points="488,-154.25 488,-181.5 604.5,-181.5 604.5,-154.25 488,-154.25"/>
<text text-anchor="start" x="493" y="-163.2" font-family="Helvetica,sans-Serif" font-size="14.00">email</text>
<polygon fill="none" stroke="black" points="488,-127 488,-154.25 604.5,-154.25 604.5,-127 488,-127"/>
<text text-anchor="start" x="493" y="-135.95" font-family="Helvetica,sans-Serif" font-size="14.00">password_hash</text>
<polygon fill="none" stroke="black" points="488,-99.75 488,-127 604.5,-127 604.5,-99.75 488,-99.75"/>
<text text-anchor="start" x="493" y="-108.7" font-family="Helvetica,sans-Serif" font-size="14.00">roles</text>
<polygon fill="none" stroke="black" points="488,-72.5 488,-99.75 604.5,-99.75 604.5,-72.5 488,-72.5"/>
<text text-anchor="start" x="493" y="-82.45" font-family="Helvetica,sans-Serif" font-style="italic" font-size="14.00">team_id</text>
</g>
<!-- Circuit -->
<g id="node2" class="node">
<title>Circuit</title>
<polygon fill="none" stroke="black" points="8,-331.62 8,-361.12 77.25,-361.12 77.25,-331.62 8,-331.62"/>
<text text-anchor="start" x="13" y="-341.93" font-family="Helvetica,sans-Serif" font-weight="bold" font-size="16.00">Circuit</text>
<polygon fill="none" stroke="black" points="8,-304.38 8,-331.62 77.25,-331.62 77.25,-304.38 8,-304.38"/>
<text text-anchor="start" x="13" y="-314.32" font-family="Helvetica,sans-Serif" text-decoration="underline" font-size="14.00">id</text>
<polygon fill="none" stroke="black" points="8,-277.12 8,-304.38 77.25,-304.38 77.25,-277.12 8,-277.12"/>
<text text-anchor="start" x="13" y="-286.07" font-family="Helvetica,sans-Serif" font-size="14.00">name</text>
<polygon fill="none" stroke="black" points="8,-249.88 8,-277.12 77.25,-277.12 77.25,-249.88 8,-249.88"/>
<text text-anchor="start" x="13" y="-258.82" font-family="Helvetica,sans-Serif" font-size="14.00">city</text>
<polygon fill="none" stroke="black" points="8,-222.62 8,-249.88 77.25,-249.88 77.25,-222.62 8,-222.62"/>
<text text-anchor="start" x="13" y="-231.57" font-family="Helvetica,sans-Serif" font-size="14.00">country</text>
<polygon fill="none" stroke="black" points="8,-195.38 8,-222.62 77.25,-222.62 77.25,-195.38 8,-195.38"/>
<text text-anchor="start" x="13" y="-204.32" font-family="Helvetica,sans-Serif" font-size="14.00">active</text>
</g>
<!-- Race -->
<g id="node3" class="node">
<title>Race</title>
<polygon fill="none" stroke="black" points="166.25,-318 166.25,-347.5 237.75,-347.5 237.75,-318 166.25,-318"/>
<text text-anchor="start" x="180.62" y="-328.3" font-family="Helvetica,sans-Serif" font-weight="bold" font-size="16.00">Race</text>
<polygon fill="none" stroke="black" points="166.25,-290.75 166.25,-318 237.75,-318 237.75,-290.75 166.25,-290.75"/>
<text text-anchor="start" x="171.25" y="-300.7" font-family="Helvetica,sans-Serif" text-decoration="underline" font-size="14.00">id</text>
<polygon fill="none" stroke="black" points="166.25,-263.5 166.25,-290.75 237.75,-290.75 237.75,-263.5 166.25,-263.5"/>
<text text-anchor="start" x="171.25" y="-272.45" font-family="Helvetica,sans-Serif" font-size="14.00">date</text>
<polygon fill="none" stroke="black" points="166.25,-236.25 166.25,-263.5 237.75,-263.5 237.75,-236.25 166.25,-236.25"/>
<text text-anchor="start" x="171.25" y="-245.2" font-family="Helvetica,sans-Serif" font-size="14.00">laps</text>
<polygon fill="none" stroke="black" points="166.25,-209 166.25,-236.25 237.75,-236.25 237.75,-209 166.25,-209"/>
<text text-anchor="start" x="171.25" y="-218.95" font-family="Helvetica,sans-Serif" font-style="italic" font-size="14.00">circuit_id</text>
</g>
<!-- Circuit&#45;&#45;Race -->
<g id="edge4" class="edge">
<title>Circuit&#45;&#45;Race</title>
<path fill="none" stroke="#7f7f7f" stroke-dasharray="5,2" d="M84.97,-278.25C107.56,-278.25 135.49,-278.25 158.28,-278.25"/>
<text text-anchor="start" x="128.28" y="-264.95" font-family="Times,serif" font-size="14.00">0..N</text>
<text text-anchor="start" x="84.97" y="-264.95" font-family="Times,serif" font-size="14.00">1</text>
</g>
<!-- Result -->
<g id="node4" class="node">
<title>Result</title>
<polygon fill="none" stroke="black" points="327.5,-358.88 327.5,-388.38 398.25,-388.38 398.25,-358.88 327.5,-358.88"/>
<text text-anchor="start" x="334.75" y="-369.18" font-family="Helvetica,sans-Serif" font-weight="bold" font-size="16.00">Result</text>
<polygon fill="none" stroke="black" points="327.5,-331.62 327.5,-358.88 398.25,-358.88 398.25,-331.62 327.5,-331.62"/>
<text text-anchor="start" x="332.5" y="-341.57" font-family="Helvetica,sans-Serif" text-decoration="underline" font-size="14.00">id</text>
<polygon fill="none" stroke="black" points="327.5,-304.38 327.5,-331.62 398.25,-331.62 398.25,-304.38 327.5,-304.38"/>
<text text-anchor="start" x="332.5" y="-313.32" font-family="Helvetica,sans-Serif" font-size="14.00">position</text>
<polygon fill="none" stroke="black" points="327.5,-277.12 327.5,-304.38 398.25,-304.38 398.25,-277.12 327.5,-277.12"/>
<text text-anchor="start" x="332.5" y="-286.07" font-family="Helvetica,sans-Serif" font-size="14.00">points</text>
<polygon fill="none" stroke="black" points="327.5,-249.88 327.5,-277.12 398.25,-277.12 398.25,-249.88 327.5,-249.88"/>
<text text-anchor="start" x="332.5" y="-258.82" font-family="Helvetica,sans-Serif" font-size="14.00">status</text>
<polygon fill="none" stroke="black" points="327.5,-222.62 327.5,-249.88 398.25,-249.88 398.25,-222.62 327.5,-222.62"/>
<text text-anchor="start" x="332.5" y="-232.57" font-family="Helvetica,sans-Serif" font-style="italic" font-size="14.00">race_id</text>
<polygon fill="none" stroke="black" points="327.5,-195.38 327.5,-222.62 398.25,-222.62 398.25,-195.38 327.5,-195.38"/>
<text text-anchor="start" x="332.5" y="-205.32" font-family="Helvetica,sans-Serif" font-style="italic" font-size="14.00">driver_id</text>
<polygon fill="none" stroke="black" points="327.5,-168.12 327.5,-195.38 398.25,-195.38 398.25,-168.12 327.5,-168.12"/>
<text text-anchor="start" x="332.5" y="-178.07" font-family="Helvetica,sans-Serif" font-style="italic" font-size="14.00">car_id</text>
</g>
<!-- Race&#45;&#45;Result -->
<g id="edge5" class="edge">
<title>Race&#45;&#45;Result</title>
<path fill="none" stroke="#7f7f7f" stroke-dasharray="5,2" d="M245.58,-278.25C268.55,-278.25 296.82,-278.25 319.73,-278.25"/>
<text text-anchor="start" x="289.73" y="-264.95" font-family="Times,serif" font-size="14.00">0..N</text>
<text text-anchor="start" x="245.58" y="-264.95" font-family="Times,serif" font-size="14.00">1</text>
</g>
<!-- Result&#45;&#45;Driver -->
<g id="edge6" class="edge">
<title>Result&#45;&#45;Driver</title>
<path fill="none" stroke="#7f7f7f" stroke-dasharray="5,2" d="M405.94,-259.23C428.02,-249.25 455.56,-236.8 480.31,-225.61"/>
<text text-anchor="start" x="471.31" y="-212.31" font-family="Times,serif" font-size="14.00">1</text>
<text text-anchor="start" x="405.94" y="-245.93" font-family="Times,serif" font-size="14.00">0..N</text>
</g>
<!-- Car -->
<g id="node5" class="node">
<title>Car</title>
<polygon fill="none" stroke="black" points="169.62,-146.62 169.62,-176.12 234.38,-176.12 234.38,-146.62 169.62,-146.62"/>
<text text-anchor="start" x="186.62" y="-156.93" font-family="Helvetica,sans-Serif" font-weight="bold" font-size="16.00">Car</text>
<polygon fill="none" stroke="black" points="169.62,-119.38 169.62,-146.62 234.38,-146.62 234.38,-119.38 169.62,-119.38"/>
<text text-anchor="start" x="174.62" y="-129.32" font-family="Helvetica,sans-Serif" text-decoration="underline" font-size="14.00">id</text>
<polygon fill="none" stroke="black" points="169.62,-92.12 169.62,-119.38 234.38,-119.38 234.38,-92.12 169.62,-92.12"/>
<text text-anchor="start" x="174.62" y="-101.08" font-family="Helvetica,sans-Serif" font-size="14.00">model</text>
<polygon fill="none" stroke="black" points="169.62,-64.88 169.62,-92.12 234.38,-92.12 234.38,-64.88 169.62,-64.88"/>
<text text-anchor="start" x="174.62" y="-73.83" font-family="Helvetica,sans-Serif" font-size="14.00">weight</text>
<polygon fill="none" stroke="black" points="169.62,-37.62 169.62,-64.88 234.38,-64.88 234.38,-37.62 169.62,-37.62"/>
<text text-anchor="start" x="174.62" y="-46.58" font-family="Helvetica,sans-Serif" font-size="14.00">year</text>
<polygon fill="none" stroke="black" points="169.62,-10.38 169.62,-37.62 234.38,-37.62 234.38,-10.38 169.62,-10.38"/>
<text text-anchor="start" x="174.62" y="-20.32" font-family="Helvetica,sans-Serif" font-style="italic" font-size="14.00">team_id</text>
</g>
<!-- Car&#45;&#45;Result -->
<g id="edge2" class="edge">
<title>Car&#45;&#45;Result</title>
<path fill="none" stroke="#7f7f7f" stroke-dasharray="5,2" d="M242.27,-138.98C265.8,-166.37 295.7,-201.19 319.72,-229.16"/>
<text text-anchor="start" x="289.72" y="-215.86" font-family="Times,serif" font-size="14.00">0..N</text>
<text text-anchor="start" x="242.27" y="-125.68" font-family="Times,serif" font-size="14.00">1</text>
</g>
<!-- Team -->
<g id="node6" class="node">
<title>Team</title>
<polygon fill="none" stroke="black" points="326.75,-113 326.75,-142.5 399,-142.5 399,-113 326.75,-113"/>
<text text-anchor="start" x="339.62" y="-123.3" font-family="Helvetica,sans-Serif" font-weight="bold" font-size="16.00">Team</text>
<polygon fill="none" stroke="black" points="326.75,-85.75 326.75,-113 399,-113 399,-85.75 326.75,-85.75"/>
<text text-anchor="start" x="331.75" y="-95.7" font-family="Helvetica,sans-Serif" text-decoration="underline" font-size="14.00">id</text>
<polygon fill="none" stroke="black" points="326.75,-58.5 326.75,-85.75 399,-85.75 399,-58.5 326.75,-58.5"/>
<text text-anchor="start" x="331.75" y="-67.45" font-family="Helvetica,sans-Serif" font-size="14.00">name</text>
<polygon fill="none" stroke="black" points="326.75,-31.25 326.75,-58.5 399,-58.5 399,-31.25 326.75,-31.25"/>
<text text-anchor="start" x="331.75" y="-40.2" font-family="Helvetica,sans-Serif" font-size="14.00">country</text>
<polygon fill="none" stroke="black" points="326.75,-4 326.75,-31.25 399,-31.25 399,-4 326.75,-4"/>
<text text-anchor="start" x="331.75" y="-12.95" font-family="Helvetica,sans-Serif" font-size="14.00">join_date</text>
</g>
<!-- Car&#45;&#45;Team -->
<g id="edge3" class="edge">
<title>Car&#45;&#45;Team</title>
<path fill="none" stroke="#7f7f7f" stroke-dasharray="5,2" d="M242.27,-88.31C265.52,-85.38 295,-81.67 318.87,-78.66"/>
<text text-anchor="start" x="309.87" y="-65.36" font-family="Times,serif" font-size="14.00">1</text>
<text text-anchor="start" x="242.27" y="-75.01" font-family="Times,serif" font-size="14.00">0..N</text>
</g>
<!-- Team&#45;&#45;Driver -->
<g id="edge1" class="edge">
<title>Team&#45;&#45;Driver</title>
<path fill="none" stroke="#7f7f7f" stroke-dasharray="5,2" d="M406.86,-102.4C428.75,-117.25 455.83,-135.61 480.22,-152.15"/>
<text text-anchor="start" x="450.22" y="-138.85" font-family="Times,serif" font-size="14.00">0..N</text>
<text text-anchor="start" x="406.86" y="-89.1" font-family="Times,serif" font-size="14.00">{0,1}</text>
</g>
</g>
</svg>
